#!OML:ASF F:\VICON\USERDATA\INSTALL\rory3\rory3.ASF
:FULLY-SPECIFIED
:DEGREES
1708
root 9.26887 17.8214 -9.53262 -358.399 0.382356 1.01886
lowerback 12.5653 4.06102 3.12693
upperback -0.150978 5.86055 0.0702348
thorax -6.88717 2.75273 -2.73539
lowerneck -21.1929 -2.26954 -10.4101
upperneck 33.7174 -1.08615 5.18708
head 15.5493 -1.02402 3.83067
rclavicle 3.73715e-014 -2.54444e-014
rhumerus -34.6097 -13.7203 -72.663
rradius 36.2
rwrist 4.85886
rhand -17.6691 7.81009
rfingers 7.12502
rthumb 8.58963 -21.9952
lclavicle 3.73715e-014 -2.54444e-014
lhumerus -36.3638 12.9595 79.2461
lradius 28.6722
lwrist -8.32102
lhand -17.0124 22.3323
lfingers 7.12502
lthumb 9.22335 52.1106
rfemur -8.95681 2.88409 14.3722
rtibia 28.3376
rfoot -19.8872 6.74155
rtoes -2.42514
lfemur -12.4623 -14.5801 -6.38756
ltibia 16.5826
lfoot -1.4405 -26.7906
ltoes -2.97347
1709
root 9.35719 17.8115 -9.52124 -358.412 -0.324376 1.1929
lowerback 12.5769 4.05689 2.94499
upperback -0.220895 5.82857 0.0391754
thorax -6.98508 2.73924 -2.66694
lowerneck -21.1158 -2.22092 -10.4521
upperneck 33.7654 -1.041 5.26486
head 15.5495 -1.00295 3.88117
rclavicle -9.74045e-015 3.97569e-015
rhumerus -34.6144 -14.0732 -72.6103
rradius 36.0776
rwrist 5.14438
rhand -17.369 7.89176
rfingers 7.12502
rthumb 8.87932 -21.9014
lclavicle -9.74045e-015 3.97569e-015
lhumerus -36.5924 12.7599 79.3757
lradius 28.6262
lwrist -8.37887
lhand -17.3808 22.8126
lfingers 7.12502
lthumb 8.86785 52.6062
rfemur -9.10846 3.03483 13.8168
rtibia 28.3592
rfoot -19.9311 6.99895
rtoes -3.79658
lfemur -12.1323 -14.4033 -6.83164
ltibia 16.4388
lfoot -0.586549 -27.1376
ltoes 1.18414
1710
root 9.4391 17.7973 -9.53342 -358.429 -0.863069 1.21689
lowerback 12.883 3.98196 2.85929
upperback -0.320411 5.72999 0.0559795
thorax -7.28015 2.68393 -2.61655
lowerneck -21.1175 -2.17218 -10.5248
upperneck 33.7992 -0.989205 5.38296
head 15.5606 -0.976673 3.95606
rclavicle -3.23025e-015 1.74931e-014
rhumerus -34.5634 -14.1742 -72.661
rradius 35.9874
rwrist 5.07559
rhand -17.2774 8.38949
rfingers 7.12502
rthumb 8.96769 -21.3999
lclavicle -3.23025e-015 1.74931e-014
lhumerus -36.7473 12.7235 79.4138
lradius 28.4878
lwrist -8.70798
lhand -17.7016 22.4367
lfingers 7.12502
lthumb 8.5583 52.2433
rfemur -9.24171 3.49254 13.497
rtibia 28.3189
rfoot -19.8148 6.92391
rtoes -5.1873
lfemur -12.0459 -14.032 -7.0911
ltibia 16.4115
lfoot -0.516294 -27.5493
ltoes 2.53283
1711
root 9.53324 17.7898 -9.51012 -358.505 -1.45796 1.35564
lowerback 12.6976 3.93286 2.80624
upperback -0.247826 5.64768 0.0395457
thorax -7.10597 2.65174 -2.57042
lowerneck -21.1765 -2.16023 -10.5807
upperneck 33.7909 -0.971829 5.44651
head 15.5688 -0.969083 3.9965
rclavicle -1.98288e-014 -1.27222e-014
rhumerus -34.4504 -14.2009 -72.6829
rradius 35.9685
rwrist 5.11574
rhand -17.843 9.68733
rfingers 7.12502
rthumb 8.42183 -20.1248
lclavicle -1.98288e-014 -1.27222e-014
lhumerus -36.8276 12.5799 79.5605
lradius 28.3741
lwrist -8.8515
lhand -17.9406 21.7706
lfingers 7.12502
lthumb 8.32768 51.5864
rfemur -9.07588 3.61067 12.9412
rtibia 28.1962
rfoot -19.925 7.29132
rtoes -6.26486
lfemur -11.724 -13.9757 -7.62502
ltibia 16.5095
lfoot -1.36541 -27.3043
ltoes 2.46398
1712
root 9.63021 17.7873 -9.48301 -358.562 -2.17099 1.42523
lowerback 12.5113 3.91939 2.80703
upperback -0.183867 5.62317 0.0523102
thorax -6.93523 2.64591 -2.53418
lowerneck -21.3626 -2.18629 -10.6825
upperneck 33.8713 -0.991472 5.54691
head 15.6544 -0.980197 4.05976
rclavicle -7.07176e-014 -3.18055e-015
rhumerus -34.373 -14.3854 -72.6331
rradius 36.0295
rwrist 5.37569
rhand -18.062 10.6119
rfingers 7.12502
rthumb 8.2105 -19.2085
lclavicle -7.07176e-014 -3.18055e-015
lhumerus -36.8387 12.2498 79.842
lradius 28.2153
lwrist -8.66561
lhand -18.248 21.7626
lfingers 7.12502
lthumb 8.03095 51.59
rfemur -8.96945 3.79315 12.4509
rtibia 28.0141
rfoot -19.9612 7.76398
rtoes -6.50746
lfemur -11.4098 -14.049 -8.1227
ltibia 16.7026
lfoot -2.45895 -26.6139
ltoes 2.12892
1713
root 9.72321 17.7823 -9.47168 -358.561 -2.78183 1.46669
lowerback 12.491 3.89579 2.82429
upperback -0.208305 5.59246 0.0266836
thorax -6.94736 2.62933 -2.56492
lowerneck -21.435 -2.2413 -10.6898
upperneck 33.9175 -1.09593 5.61881
head 15.7058 -1.01782 4.07521
rclavicle 6.3462e-014 -2.38542e-015
rhumerus -34.4018 -14.6739 -72.6078
rradius 36.2279
rwrist 5.2377
rhand -17.5577 10.3982
rfingers 7.12502
rthumb 8.69722 -19.4026
lclavicle 6.3462e-014 -2.38542e-015
lhumerus -36.7907 11.6674 80.1213
lradius 27.9769
lwrist -8.38916
lhand -18.6464 21.5677
lfingers 7.12502
lthumb 7.64648 51.4094
rfemur -8.88244 4.04563 12.0092
rtibia 27.733
rfoot -19.9076 8.06798
rtoes -7.03052
lfemur -11.2707 -13.9269 -8.57868
ltibia 16.9272
lfoot -3.43219 -26.0406
ltoes 2.10531
1714
root 9.81856 17.7773 -9.45685 -358.586 -3.27162 1.59041
lowerback 12.3821 3.83837 2.79238
upperback -0.213368 5.50635 -0.000729107
thorax -6.89656 2.58963 -2.55258
lowerneck -21.3311 -2.27721 -10.5889
upperneck 33.9032 -1.17296 5.52157
head 15.682 -1.05285 3.9979
rclavicle -9.85972e-014 7.15625e-015
rhumerus -34.4625 -14.7158 -72.6341
rradius 36.4353
rwrist 4.91147
rhand -17.3803 10.1629
rfingers 7.12502
rthumb 8.86838 -19.6308
lclavicle -9.85972e-014 7.15625e-015
lhumerus -36.7849 11.4537 80.2567
lradius 27.7918
lwrist -8.70506
lhand -18.71 21.4161
lfingers 7.12502
lthumb 7.58504 51.2601
rfemur -8.71656 4.33982 11.476
rtibia 27.4257
rfoot -19.8324 8.28336
rtoes -7.33002
lfemur -11.1019 -13.8632 -9.18127
ltibia 17.1454
lfoot -4.47249 -25.4602
ltoes 2.08602
1715
root 9.91927 17.7786 -9.43727 -358.604 -3.73903 1.69991
lowerback 12.2641 3.72323 2.82203
upperback -0.204816 5.35333 -0.00645373
thorax -6.8264 2.5161 -2.53909
lowerneck -21.315 -2.28775 -10.5916
upperneck 33.8836 -1.1824 5.48452
head 15.6699 -1.06422 3.97864
rclavicle -3.51352e-014 -4.77083e-015
rhumerus -34.5113 -14.429 -72.8025
rradius 36.6412
rwrist 4.35945
rhand -17.768 9.97206
rfingers 7.12502
rthumb 8.49422 -19.8371
lclavicle -3.51352e-014 -4.77083e-015
lhumerus -36.8653 11.4674 80.3811
lradius 27.7545
lwrist -9.0183
lhand -18.5281 22.1868
lfingers 7.12502
lthumb 7.7606 52.0244
rfemur -8.64687 4.45253 10.9617
rtibia 27.1122
rfoot -19.7681 8.59254
rtoes -7.84812
lfemur -10.9247 -13.9479 -9.79921
ltibia 17.3665
lfoot -5.39191 -24.7851
ltoes 2.62856
1716
root 10.0157 17.7836 -9.41902 -358.637 -4.23704 1.7867
lowerback 12.2378 3.63274 2.8048
upperback -0.242841 5.2317 0.00659411
thorax -6.86189 2.45622 -2.49516
lowerneck -21.2451 -2.30137 -10.6405
upperneck 33.8905 -1.1992 5.48642
head 15.6598 -1.08016 3.98378
rclavicle -5.53118e-014 -7.95139e-016
rhumerus -34.6915 -14.1678 -72.9313
rradius 36.8971
rwrist 3.81805
rhand -18.7361 10.2163
rfingers 7.12502
rthumb 7.55985 -19.6286
lclavicle -5.53118e-014 -7.95139e-016
lhumerus -37.0081 11.1631 80.6377
lradius 27.7211
lwrist -8.91503
lhand -18.5573 23.0791
lfingers 7.12502
lthumb 7.7325 52.9177
rfemur -8.5896 4.54513 10.515
rtibia 26.7728
rfoot -19.7354 8.79902
rtoes -8.69761
lfemur -10.7182 -13.8836 -10.4105
ltibia 17.583
lfoot -6.34948 -24.1271
ltoes 2.72654
1717
root 10.1112 17.79 -9.40466 -358.638 -4.67845 1.88333
lowerback 12.2133 3.56044 2.6992
upperback -0.283619 5.1239 0.050199
thorax -6.91098 2.40636 -2.3727
lowerneck -21.1859 -2.32965 -10.6574
upperneck 33.9032 -1.23384 5.44729
head 15.6566 -1.10523 3.96241
rclavicle 1.26725e-014 1.59028e-015
rhumerus -34.8396 -14.1779 -72.8502
rradius 37.1048
rwrist 3.71655
rhand -18.9955 9.85543
rfingers 7.12502
rthumb 7.30951 -19.9983
lclavicle 1.26725e-014 1.59028e-015
lhumerus -37.0042 10.685 81.0459
lradius 27.6296
lwrist -8.73684
lhand -18.7392 23.7711
lfingers 7.12502
lthumb 7.55684 53.6162
rfemur -8.51143 4.77965 10.0656
rtibia 26.3849
rfoot -19.5304 8.88323
rtoes -8.98454
lfemur -10.6207 -13.8676 -11.0269
ltibia 17.8528
lfoot -7.47651 -23.2522
ltoes 1.33778
